<svg width="18" height="18" viewBox="0 0 18 18" xmlns="http://www.w3.org/2000/svg">
    <g fill="none" fill-rule="evenodd">
        <path d="M0 0h18v18H0z"/>
        <path d="M9 6.75h3c.412 0 .75-.338.75-.75a.752.752 0 0 0-.75-.75H9a.752.752 0 0 0-.75.75c0 .412.338.75.75.75zm0 3h3c.412 0 .75-.338.75-.75a.752.752 0 0 0-.75-.75H9a.752.752 0 0 0-.75.75c0 .412.338.75.75.75zm0 3h3c.412 0 .75-.338.75-.75a.752.752 0 0 0-.75-.75H9a.752.752 0 0 0-.75.75c0 .412.338.75.75.75zm-3.75-7.5h1.5v1.5h-1.5v-1.5zm0 3h1.5v1.5h-1.5v-1.5zm0 3h1.5v1.5h-1.5v-1.5zm9.75-9H3a.752.752 0 0 0-.75.75v12c0 .412.337.75.75.75h12c.412 0 .75-.338.75-.75V3a.752.752 0 0 0-.75-.75zm-.75 12H3.75V3.75h10.5v10.5z" fill="#FFF" fill-rule="nonzero"/>
    </g>
</svg>
