<svg width="18" height="18" viewBox="0 0 18 18" xmlns="http://www.w3.org/2000/svg">
    <g fill="none" fill-rule="evenodd">
        <path d="M0 0h18v18H0z"/>
        <path d="M3 13.5h12c.412 0 .75-.338.75-.75A.752.752 0 0 0 15 12H3a.752.752 0 0 0-.75.75c0 .412.337.75.75.75zm0-3.75h12c.412 0 .75-.338.75-.75a.752.752 0 0 0-.75-.75H3a.752.752 0 0 0-.75.75c0 .412.337.75.75.75zm-.75-4.5c0 .412.337.75.75.75h12c.412 0 .75-.338.75-.75A.752.752 0 0 0 15 4.5H3a.752.752 0 0 0-.75.75z" fill="#FFF" fill-rule="nonzero"/>
    </g>
</svg>
