<svg width="68" height="25" viewBox="0 0 68 25" xmlns="http://www.w3.org/2000/svg">
    <defs>
        <linearGradient x1="-.002%" y1="50.003%" x2="100.017%" y2="50.003%" id="sksmjfy8la">
            <stop stop-color="#B389FF" offset="0%"/>
            <stop stop-color="#6520FF" offset="100%"/>
        </linearGradient>
        <linearGradient x1="-.036%" y1="50.009%" x2="100%" y2="50.009%" id="l7rxcmcy4b">
            <stop stop-color="#B389FF" offset="0%"/>
            <stop stop-color="#6520FF" offset="100%"/>
        </linearGradient>
        <linearGradient x1="-1.418%" y1="49.976%" x2="102.547%" y2="49.976%" id="ezuuyuaotc">
            <stop stop-color="#FFF" stop-opacity="0" offset="0%"/>
            <stop stop-color="#FFF" stop-opacity=".6" offset="49%"/>
            <stop stop-color="#FFF" stop-opacity="0" offset="100%"/>
        </linearGradient>
        <linearGradient x1="39.223%" y1="38.334%" x2="68.519%" y2="60.322%" id="zdo4rl49pd">
            <stop stop-color="#FFF" stop-opacity=".42" offset="0%"/>
            <stop stop-color="#FFF" stop-opacity=".38" offset="3%"/>
            <stop stop-color="#FFF" stop-opacity=".26" offset="12%"/>
            <stop stop-color="#FFF" stop-opacity=".17" offset="23%"/>
            <stop stop-color="#FFF" stop-opacity=".09" offset="34%"/>
            <stop stop-color="#FFF" stop-opacity=".04" offset="48%"/>
            <stop stop-color="#FFF" stop-opacity=".01" offset="66%"/>
            <stop stop-color="#FFF" stop-opacity="0" offset="100%"/>
        </linearGradient>
    </defs>
    <g fill-rule="nonzero" fill="none">
        <path d="M23.7 12.395c0-1.89 1.175-2.738 2.683-2.738 1.103 0 1.889.46 2.063 1.412l-.968.286c-.135-.532-.547-.778-1.103-.778-.865 0-1.509.567-1.509 1.746 0 1.18.604 1.848 1.74 1.848.721 0 1.36-.294 1.594-.492l.183.85c-.484.356-1.19.566-1.968.566-1.683-.01-2.715-.89-2.715-2.7zM29.77 12.38c0-1.787 1.02-2.721 2.66-2.721 1.64 0 2.635.95 2.635 2.698s-1.048 2.73-2.675 2.73c-1.572-.001-2.62-.93-2.62-2.707zm4.128-.017c0-1.238-.547-1.814-1.474-1.814-.926 0-1.485.567-1.485 1.826 0 1.214.58 1.814 1.474 1.814.893 0 1.484-.61 1.484-1.826h.001zM41.866 12.229c0 1.69-.992 2.762-3.08 2.762H36.86V9.75h1.946c1.934 0 3.06.851 3.06 2.479zm-1.167.07c0-1.222-.611-1.7-1.92-1.7h-.8v3.556h.817c1.268-.006 1.903-.632 1.903-1.856zM43.658 9.75h1.122v5.238h-1.122zM51.706 9.75v5.238h-.464l-3.174-3.18v3.183h-1.087V9.75h.468l3.183 3.135V9.75zM58.65 12.172l-.008.469c-.04 1.977-1.36 2.445-2.477 2.445-1.516 0-2.667-.786-2.667-2.668 0-1.927 1.207-2.761 2.762-2.761 1.238 0 2.025.5 2.154 1.436l-.992.27c-.098-.492-.455-.82-1.192-.82-.906 0-1.563.516-1.563 1.825 0 1.144.476 1.814 1.524 1.814.68 0 1.27-.246 1.398-1.119h-1.321v-.897l2.382.006zM66.378 14.99l-1.349-1.833-1.278 1.834h-1.254l1.937-2.652-1.897-2.59h1.31l1.285 1.754 1.214-1.753h1.247l-1.874 2.565 1.962 2.676z" fill="#FFF"/>
        <path d="M12.47 11.819 9.253 8.304l-.202-.227-.017-.019-4.35-4.761A2.631 2.631 0 0 0 .211 5.782h3.36a.344.344 0 1 1 0 .688H.514c.084.135.18.262.289.38l.61.667h1.393a.344.344 0 0 1 0 .687H2.04l.954 1.045h.713a.34.34 0 1 1 0 .68h-.08l3.34 3.664-6.165 6.744a2.63 2.63 0 1 0 3.882 3.55l1.033-1.134 5.505-6.016.066-.073.202-.227.983-1.075a2.63 2.63 0 0 0-.004-3.543zM4.61 5.887a.348.348 0 0 1 .243-.105h.362a.344.344 0 1 1 0 .688h-.362a.34.34 0 0 1-.243-.587v.004zm-.778 2.319a.344.344 0 0 1 0-.689h.363a.344.344 0 0 1 0 .689h-.363zm1.504 1.629a.34.34 0 0 1-.242.1h-.36a.344.344 0 0 1 0-.686h.36a.34.34 0 0 1 .242.586zm.252-1.73a.348.348 0 0 1-.243.1h-.082a.344.344 0 0 1 0-.688h.082a.34.34 0 0 1 .243.588zm1.092 1.73a.34.34 0 0 1-.243.1h-.296a.34.34 0 0 1-.34-.34.34.34 0 0 1 .094-.246.34.34 0 0 1 .243-.1h.296a.34.34 0 0 1 .242.586h.004z" fill="url(#sksmjfy8la)"/>
        <path d="M12.47 11.819 9.253 8.304l-.202-.227-.017-.019-.184.202-.877.96c-1.145 1.238-1.046 2.637-.134 3.704l3.384 3.813.066-.073.202-.227.983-1.075a2.63 2.63 0 0 0-.004-3.543z" opacity=".33" fill="#000"/>
        <path d="M17.189 19.005a.344.344 0 0 1 0-.688h3.069a2.677 2.677 0 0 0-.317-.424l-.566-.62h-1.42a.34.34 0 0 1-.24-.582.34.34 0 0 1 .244-.1h.793l-.953-1.048h-.742a.34.34 0 1 1 0-.68h.114l-3.389-3.708 6.16-6.75a2.63 2.63 0 0 0-3.883-3.55L9.256 8.3l-.98 1.074a2.631 2.631 0 0 0 0 3.55l3.213 3.515 4.57 4.999A2.63 2.63 0 0 0 20.546 19l-3.357.005zm-1.771-4.048a.34.34 0 0 1 .244-.101h.358a.344.344 0 0 1 0 .687h-.358a.34.34 0 0 1-.244-.586zm-.561.486a.34.34 0 0 1-.243.1h-.296a.34.34 0 0 1-.239-.583.34.34 0 0 1 .243-.1h.302a.34.34 0 0 1 .243.586l-.01-.003zm.21 1.487a.34.34 0 0 1 .34-.34h.082a.344.344 0 1 1 0 .687h-.071a.34.34 0 0 1-.347-.347h-.004zm1.078 1.974a.34.34 0 0 1-.243.101h-.358a.344.344 0 0 1 0-.688h.358a.34.34 0 0 1 .243.587zm.076-1.974a.34.34 0 0 1 .34-.34h.36a.344.344 0 1 1 0 .687h-.36a.34.34 0 0 1-.336-.347h-.004z" fill="url(#l7rxcmcy4b)"/>
        <path d="M16.613.855a77.032 77.032 0 0 1-2.432 2.984c-.412.49-.835.972-1.254 1.458l-1.274 1.44c-.43.474-.858.95-1.292 1.425l-.644.71c-.216.237-.43.474-.64.713a8.55 8.55 0 0 0-.6.727 1.68 1.68 0 0 0-.308.837c-.008.308.07.612.227.878.161.275.358.526.586.748a3.212 3.212 0 0 1-.68-.692c-.198-.274-.31-.6-.324-.938 0-.343.097-.678.279-.97a4.48 4.48 0 0 1 .28-.414c.095-.13.195-.257.294-.384.794-1.02 1.649-1.974 2.494-2.933l1.287-1.429c.436-.469.866-.944 1.307-1.409A82.18 82.18 0 0 1 16.613.855z" fill="url(#ezuuyuaotc)"/>
        <path d="M5.718 22.756 4.685 23.89a2.632 2.632 0 0 1-3.882-3.553l6.163-6.744c.986 3.386-.05 6.907-1.248 9.163z" fill="url(#zdo4rl49pd)"/>
    </g>
</svg>
