<svg width="18" height="18" viewBox="0 0 18 18" xmlns="http://www.w3.org/2000/svg">
    <g fill="none" fill-rule="evenodd">
        <path d="M0 0h18v18H0z"/>
        <path d="M16.492 3c0-.825-.667-1.5-1.492-1.5H3c-.825 0-1.5.675-1.5 1.5v9c0 .825.675 1.5 1.5 1.5h10.5l3 3L16.492 3zm-3.742 7.5h-7.5a.752.752 0 0 1-.75-.75c0-.412.338-.75.75-.75h7.5c.412 0 .75.338.75.75s-.338.75-.75.75zm0-2.25h-7.5a.752.752 0 0 1-.75-.75c0-.412.338-.75.75-.75h7.5c.412 0 .75.338.75.75s-.338.75-.75.75zm0-2.25h-7.5a.752.752 0 0 1-.75-.75c0-.412.338-.75.75-.75h7.5c.412 0 .75.338.75.75s-.338.75-.75.75z" fill="#FFF" fill-rule="nonzero"/>
    </g>
</svg>
